<svg xmlns="http://www.w3.org/2000/svg" xmlns:xlink="http://www.w3.org/1999/xlink" id="Layer_1" style="enable-background:new 0 0 64 64;" version="1.1" viewBox="0 0 64 64" xml:space="preserve"><g><path d="M58.29092,18.61902v-9.0741h-3.10187V0H10.29904C7.76907,0,5.70908,2.06006,5.70908,4.59003v54.82001   C5.70908,61.94,7.76907,64,10.29904,64h44.89001v-9.54401h3.10187v-9.07416h-3.10187v-8.84436h3.10187v-9.0741h-3.10187v-8.84436   H58.29092z M53.18906,62H17.46902V2h35.72003V62z"/><rect height="13.38495" width="24.1181" x="23.27121" y="12.80695"/><path d="M35.33029,46.51117c2.74847,0,4.97662-4.16559,4.97662-6.91412c0-2.74847-2.22815-4.97656-4.97662-4.97656   c-2.74854,0-4.97662,2.22809-4.97662,4.97656C30.35367,42.34558,32.58176,46.51117,35.33029,46.51117z"/><path d="M40.77011,46.60217c-1.36383,1.71729-3.22241,2.93964-5.44489,2.93964s-4.08105-1.22235-5.44489-2.93964   c-2.3739,0.45459-4.16199,2.53552-4.16199,5.04077v5.62671h19.22382v-5.62671   C44.94217,49.1377,43.14401,47.05676,40.77011,46.60217z"/></g></svg>