<svg xmlns="http://www.w3.org/2000/svg" xmlns:xlink="http://www.w3.org/1999/xlink" width="15px" height="12px" viewBox="0 0 15 12" version="1.1">
    <title>C93FAF0D-AF8D-46B4-877C-72D8537BF759</title>
    <g id="Page-1" stroke="none" stroke-width="1" fill="none" fill-rule="evenodd">
        <g id="Choose-Flight-Page" transform="translate(-453.000000, -156.000000)" fill="#FFFFFF" fill-rule="nonzero">
            <g id="Group-28" transform="translate(331.000000, 111.000000)">
                <path d="M134.984636,45.0002915 C134.966699,45.0180859 134.346156,45.6132608 133.556111,46.3650411 C132.766029,47.1168213 131.744936,48.0869673 130.724536,49.0564209 C129.704135,50.0258744 128.684463,50.9944534 127.89296,51.7478007 C127.613946,52.0132944 127.575794,52.0493072 127.369932,52.2451731 L123.862304,49.2158585 L122,51.3777961 L126.489763,55.2553188 L127.491104,56.1226959 L128.42867,55.1851298 C128.446607,55.167193 129.06715,54.5721606 129.857195,53.8203803 C130.647277,53.0686001 131.66837,52.0984541 132.68877,51.1290005 C133.709171,50.1595469 134.728843,49.190968 135.520346,48.4376207 C136.311995,47.6844192 136.813631,47.2081107 137,47.0217418 L134.984672,45 L134.984636,45.0002915 Z" id="Path"/>
            </g>
        </g>
    </g>
</svg>