<svg width="19" height="13" viewBox="0 0 19 13" xmlns="http://www.w3.org/2000/svg">
    <path d="M0 8.965C0 8.763.163 8.6.364 8.6a1.823 1.823 0 0 0 0-3.645A.365.365 0 0 1 0 4.591V.946C0 .744.163.58.364.58H18.59c.2 0 .364.163.364.365V4.59a.364.364 0 0 1-.364.364 1.822 1.822 0 1 0 0 3.645c.2 0 .364.163.364.365v3.645a.364.364 0 0 1-.364.364H.364A.364.364 0 0 1 0 12.61V8.965zm11.3-4.739a.364.364 0 1 0 0-.729H5.466a.365.365 0 0 0 0 .73H11.3zm0 2.916a.364.364 0 1 0 0-.729H5.466a.365.365 0 0 0 0 .73H11.3zm-2.188 2.916a.364.364 0 1 0 0-.729H5.469a.364.364 0 1 0 0 .73h3.645z" fill="#94979B" fill-rule="evenodd"/>
</svg>
