<svg width="15" height="20" viewBox="0 0 15 20" xmlns="http://www.w3.org/2000/svg">
    <path d="M12.83 5.745V2.616h1.504V.834H.831v1.782h1.505v3.109c0 1.228.594 2.376 1.623 3.069L6 10.239l-2.06 1.426a3.731 3.731 0 0 0-1.623 3.069v3.109H.81v1.782h13.504v-1.782H12.81v-3.109a3.681 3.681 0 0 0-1.624-3.069l-2.02-1.426 2.06-1.425a3.712 3.712 0 0 0 1.604-3.07zm-2.614 7.385c.535.357.832.97.832 1.604v3.109h-6.93v-3.109c0-.634.316-1.247.831-1.604l2.634-1.802 2.633 1.802zm.832-7.385a1.97 1.97 0 0 1-.832 1.604L7.583 9.15 4.949 7.33c-.534-.357-.831-.97-.831-1.604V2.616h6.93v3.129z" fill="#94979B" fill-rule="evenodd"/>
</svg>
