<svg width="16" height="16" viewBox="0 0 16 16" xmlns="http://www.w3.org/2000/svg">
    <path d="M2.889 0v1.201H.899c-.496 0-.899.417-.899.929V15.07c0 .512.403.929.899.929h14.202c.496 0 .899-.417.899-.929V2.13c0-.512-.404-.929-.9-.929h-1.989V0h-1.302v1.201H4.19V0H2.89zm1.423 9.505H2.824V7.969h1.488v1.536zm.01 2.283v1.538h-1.49v-1.538h1.49zm4.345-2.283H7.18V7.969h1.488v1.536zm.01 2.283v1.538H7.188v-1.538h1.489zm4.347-2.283h-1.488V7.969h1.488v1.536zm.01 2.283v1.538h-1.489v-1.538h1.489zm2.006-5.831H.96V4.612H15.04v1.345z" fill="#012429" fill-rule="nonzero"/>
</svg>
