<svg width="17" height="12" viewBox="0 0 17 12" xmlns="http://www.w3.org/2000/svg">
    <path d="M1.511.476c-.242 0-.464.074-.654.199L7.79 7.24c.304.288.697.288 1 0L15.71.675a1.187 1.187 0 0 0-.655-.2H1.511zm-1.154.846a1.3 1.3 0 0 0-.077.43v8.529c0 .259.072.497.199.699l4.899-4.893L.357 1.322zm15.852 0L11.2 6.08l4.887 4.9c.126-.202.199-.44.199-.7V1.753a1.3 1.3 0 0 0-.077-.43zm-5.605 5.33-1.25 1.185a1.549 1.549 0 0 1-2.13 0l-1.25-1.18-4.848 4.836c.122.04.25.064.385.064h13.543c.135 0 .264-.023.385-.064L10.604 6.65z" fill="#94979B" fill-rule="evenodd"/>
</svg>
