<svg width="14" height="20" viewBox="0 0 14 20" xmlns="http://www.w3.org/2000/svg">
    <path d="M7 0C5.144 0 3.363.676 2.05 1.88.738 3.083 0 4.715 0 6.417 0 9.56 5.702 18.24 6.812 19.903c.04.06.111.097.188.097a.225.225 0 0 0 .188-.097C8.298 18.234 14 9.522 14 6.418c0-1.702-.738-3.335-2.05-4.538C10.637.676 8.856 0 7 0zm0 9.167c-.866 0-1.697-.307-2.31-.855-.612-.546-.957-1.289-.957-2.062 0-.773.345-1.515.957-2.062.613-.547 1.444-.855 2.31-.855.866 0 1.697.308 2.31.855.612.547.957 1.289.957 2.062 0 .773-.345 1.516-.957 2.062-.613.548-1.444.855-2.31.855z" fill="#420B4F" fill-rule="nonzero"/>
</svg>
