<svg xmlns="http://www.w3.org/2000/svg" xmlns:xlink="http://www.w3.org/1999/xlink" width="27px" height="15px" viewBox="0 0 27 15" version="1.1">
    <title>310622A1-F1D2-451F-8863-F6A3FB18D89C</title>
    <g id="Page-1" stroke="none" stroke-width="1" fill="none" fill-rule="evenodd">
        <g id="Choose-Flight-Page" transform="translate(-347.000000, -400.000000)" fill="#012429" fill-rule="nonzero">
            <path d="M373.0658,401.335365 C371.731487,400.061726 368.910294,399.466189 367.288988,400.606142 L363.053759,403.344711 L353.959502,402.281184 C353.813566,402.263858 353.6663,402.297621 353.542354,402.376698 L351.59988,403.61548 C351.403967,403.740979 351.292013,403.963107 351.308009,404.195209 C351.323779,404.427327 351.46505,404.63235 351.676294,404.729861 L357.462204,407.369828 L352.762055,410.43002 L351.061481,409.586159 C350.332257,409.223207 349.338672,409.12125 348.733583,409.691226 L347.230668,410.910902 C347.077402,411.037515 346.992328,411.22876 347.000545,411.42734 C347.008541,411.626143 347.109167,411.80962 347.271979,411.923348 L350.88307,414.518677 C351.481904,414.972702 352.260713,415.115749 352.981692,414.904061 L359.372635,413.034885 C359.972379,412.858072 360.541701,412.590857 361.060358,412.241917 L372.810731,404.328725 C373.300518,404.006864 373.615698,403.477983 373.665226,402.894047 C373.714982,402.309883 373.493969,401.735443 373.065482,401.335405 L373.0658,401.335365 Z" id="Path-Copy-6"/>
        </g>
    </g>
</svg>