<svg xmlns="http://www.w3.org/2000/svg" xmlns:xlink="http://www.w3.org/1999/xlink" width="19px" height="18px" viewBox="0 0 19 18" version="1.1">
    <title>A67F2A50-DD25-41ED-8669-B8AE34338E1B</title>
    <g id="Page-1" stroke="none" stroke-width="1" fill="none" fill-rule="evenodd">
        <g id="Choose-Flight-Page" transform="translate(-544.000000, -452.000000)" fill="#898294" fill-rule="nonzero">
            <path d="M558.25307,453.204108 C557.620903,453.194069 556.860239,453.583444 556.226081,454.217602 C555.187973,455.151791 554.168253,456.199345 553.185598,457.258085 L545.077643,455.636458 L544.46951,456.852579 L550.550476,459.893062 L547.104632,463.947039 C546.314541,463.687161 545.077643,463.3915 545.077643,464.352401 C545.077643,464.54229 545.125151,464.737963 545.2804,464.960534 L547.712605,467.393029 C547.935154,467.548137 548.130853,467.595785 548.320738,467.595785 C549.281784,467.595785 548.985989,466.359033 548.7261,465.568797 L552.780077,462.122952 L555.82056,468.203918 L557.036826,467.595785 L555.415199,459.487831 C556.473938,458.505175 557.521493,457.485455 558.455682,456.447348 C559.08984,455.81319 559.479202,455.052526 559.469176,454.420359 C559.463803,454.079745 559.356345,453.755543 559.138321,453.535108 C558.917893,453.317083 558.593531,453.209624 558.25307,453.204253 L558.25307,453.204108 Z" id="Path" transform="translate(551.969438, 460.703918) rotate(-315.000000) translate(-551.969438, -460.703918) "/>
        </g>
    </g>
</svg>