<svg width="18" height="18" viewBox="0 0 18 18" xmlns="http://www.w3.org/2000/svg">
    <g fill="#94979B" fill-rule="evenodd">
        <path d="M8.64 4.632a6.11 6.11 0 0 0 2.648-.601A8.862 8.862 0 0 0 8.64 1.163 8.855 8.855 0 0 0 5.994 4.03a6.103 6.103 0 0 0 2.646.603zM5.015 3.443A10.117 10.117 0 0 1 7.391.668a8.356 8.356 0 0 0-3.67 1.503c.367.485.803.912 1.294 1.272zM3.58 7.88c.12-1.194.427-2.346.903-3.407A7.374 7.374 0 0 1 2.84 2.905a8.467 8.467 0 0 0-1.755 2.393A9.033 9.033 0 0 0 3.581 7.88zM4.705 9.8a9.809 9.809 0 0 0 1.174 3.924 10.853 10.853 0 0 0 5.522 0A9.811 9.811 0 0 0 12.575 9.8c-1.21.514-2.54.801-3.935.801-1.396 0-2.724-.286-3.935-.801zM12.266 3.444c.49-.359.924-.79 1.29-1.275A8.362 8.362 0 0 0 9.89.67a10.11 10.11 0 0 1 2.377 2.775zM13.7 7.883a9.044 9.044 0 0 0 2.496-2.581 8.442 8.442 0 0 0-1.754-2.394 7.367 7.367 0 0 1-1.644 1.567c.476 1.062.783 2.214.901 3.408zM11.804 5.054a7.263 7.263 0 0 1-3.164.724 7.26 7.26 0 0 1-3.164-.723 9.897 9.897 0 0 0-.795 3.47 8.895 8.895 0 0 0 7.918.002 9.896 9.896 0 0 0-.795-3.473zM9.89 17.294a8.43 8.43 0 0 0 6.394-4.82 12.012 12.012 0 0 1-4.12 2.22 10.078 10.078 0 0 1-2.275 2.6zM16.695 6.58a10.177 10.177 0 0 1-2.943 2.625 11.032 11.032 0 0 1-.83 3.99 10.947 10.947 0 0 0 4.034-2.993 8.396 8.396 0 0 0-.26-3.621zM8.64 15.226c-.63 0-1.248-.053-1.852-.147a8.653 8.653 0 0 0 1.852 1.72 8.636 8.636 0 0 0 1.85-1.717c-.603.093-1.22.144-1.85.144zM3.529 9.206A10.176 10.176 0 0 1 .585 6.58 8.374 8.374 0 0 0 .323 10.2a10.95 10.95 0 0 0 4.035 2.995 11.036 11.036 0 0 1-.83-3.99zM5.118 14.698A12.002 12.002 0 0 1 1 12.48a8.432 8.432 0 0 0 6.39 4.814 10.072 10.072 0 0 1-2.272-2.596z"/>
    </g>
</svg>
