<?xml version="1.0" encoding="UTF-8"?>
<svg width="16px" height="14px" viewBox="0 0 16 14" version="1.1" xmlns="http://www.w3.org/2000/svg" xmlns:xlink="http://www.w3.org/1999/xlink">
    <title>42630E42-F289-4A8E-8D25-3F6D4AC362C3</title>
    <g id="Page-1" stroke="none" stroke-width="1" fill="none" fill-rule="evenodd">
        <g id="transfer" transform="translate(-895.000000, -452.000000)" fill="#000000" fill-rule="nonzero">
            <path d="M902.873631,452.553443 L901.339728,454.087358 L901.087261,453.834888 C900.213514,452.961135 898.79608,452.961135 897.922195,453.834888 L896.834857,454.922234 C895.96111,455.795988 895.96111,457.213432 896.834857,458.087324 L897.087324,458.339794 L895.553421,459.873708 C894.815526,460.611609 894.815526,461.81546 895.553421,462.55336 L900.446598,467.446575 C901.184493,468.184475 902.388335,468.184475 903.12623,467.446575 L910.446579,460.126171 C911.184474,459.38827 911.184474,458.184419 910.446579,457.446519 L905.553402,452.553304 C904.795847,451.815543 903.592039,451.815543 902.873631,452.55344 L902.873631,452.553443 Z M897.78628,457.11656 C897.436837,456.767114 897.436837,456.223284 897.78628,455.873838 L898.873618,454.786492 C899.223061,454.437046 899.766886,454.437046 900.11633,454.786492 L900.368797,455.038961 L898.038747,457.369029 L897.78628,457.11656 Z" id="Shape" transform="translate(903.000000, 460.000000) rotate(-315.000000) translate(-903.000000, -460.000000) "></path>
        </g>
    </g>
</svg>