<?xml version="1.0" encoding="UTF-8"?>
<svg width="14px" height="14px" viewBox="0 0 14 14" version="1.1" xmlns="http://www.w3.org/2000/svg" xmlns:xlink="http://www.w3.org/1999/xlink">
    <title>1AFA2E31-DE59-4793-98B8-D651B6EA1D3C</title>
    <g id="Page-1" stroke="none" stroke-width="1" fill="none" fill-rule="evenodd">
        <g id="transfer" transform="translate(-950.000000, -452.000000)" fill="#000000" fill-rule="nonzero">
            <g id="Shape-3" transform="translate(950.000000, 452.000000)">
                <path d="M12.6527715,2.04224286 C12.8957388,1.16232903 14.2133753,1.53739634 13.970196,2.41782176 L13.3084758,4.80153204 C13.2081617,5.16480614 12.8419139,5.37883414 12.4839294,5.28806947 L10.1207225,4.67921109 C9.24762501,4.45802639 9.57836585,3.10807485 10.4527089,3.32969575 L11.2267432,3.52932149 C10.1760845,2.17633279 8.59054262,1.39351104 6.88974499,1.39351104 C3.84125796,1.39351104 1.37130238,3.90312332 1.37130238,7.00013463 C1.37130238,10.0970652 3.84144347,12.6067582 6.88974499,12.6067582 C9.6729503,12.6067582 12.0241784,10.4984922 12.3660499,7.69668821 L11.2913807,7.69668821 C10.3895024,7.69668821 10.3895024,6.30331179 11.2913807,6.30331179 L13.0940243,6.30331179 C13.4724946,6.30331179 13.779543,6.61537426 13.779543,7 C13.779543,10.8653743 10.6944837,14 6.889904,14 C3.08532435,14 0,10.8653743 0,7 C0,3.13462574 3.08532435,0 6.889904,0 C9.08106202,0 11.1312312,1.05743134 12.430608,2.84275714 L12.6527715,2.04224286 Z M7.06966482,2.78206516 L7.06966482,7.06908724 L10.3728329,9.66989499 L9.53710275,10.7688718 L5.69860096,7.74652396 L5.69860096,2.78206516 L7.06966482,2.78206516 Z" id="Shape"></path>
            </g>
        </g>
    </g>
</svg>