<?xml version="1.0" encoding="UTF-8"?>
<svg width="20px" height="18px" viewBox="0 0 20 18" version="1.1" xmlns="http://www.w3.org/2000/svg" xmlns:xlink="http://www.w3.org/1999/xlink">
    <title>AD8B2607-0E3E-433D-820D-F7EA91234F2E</title>
    <g id="Page-1" stroke="none" stroke-width="1" fill="none" fill-rule="evenodd">
        <g id="transfer" transform="translate(-830.000000, -144.000000)" fill="#221F20" fill-rule="nonzero">
            <g id="Shape-4" transform="translate(830.000000, 144.000000)">
                <path d="M18.9942458,16.868063 L18.9942458,13.8115229 C18.9942458,13.8115229 19.3293775,12.5662584 17.6088109,12.5662584 L15.7540623,12.5662584 C15.7540623,12.1134901 15.9551437,12.1134901 16.2009497,12.1134901 L17.9439665,12.1134901 C18.4578931,12.1134901 18.7931684,11.4569982 18.7931684,10.9135468 L18.7931684,2.46866329 C18.7931684,2.21961038 18.7038508,1.97057364 18.4803272,1.85733102 L14.7262171,0.0688172418 C14.5921628,0.00090805536 14.4581085,-0.021675782 14.3240623,0.0234918927 L1.29612929,2.51402098 C0.960841979,2.58193016 0.670430966,2.8761467 0.670430966,3.23843415 L0.670430966,16.8679781 C0.446903432,16.8679781 0,17.1623523 0,17.5472317 L0,18 L20,18 C20,17.3207464 19.6648683,16.8679781 18.9944533,16.8679781 L18.9942458,16.868063 Z M16.089178,2.19705888 C16.089178,2.038499 16.3127055,1.92542214 16.4467558,1.99333132 L17.1394533,2.33287321 C17.3182442,2.42336624 17.4075619,2.60450996 17.4075619,2.80840328 L17.4075619,5.77409856 C17.4075619,5.95524229 17.2957981,6.06847278 17.1394533,6.02315147 L16.5584876,5.8873331 C16.3126696,5.81942391 16.0891341,5.57037505 16.0891341,5.29872213 L16.089178,2.19705888 Z M16.089178,7.3364384 C16.089178,7.17787852 16.2902594,7.04206419 16.4467558,7.0873855 L17.0724541,7.20062003 C17.2959816,7.24594538 17.4075858,7.4270891 17.4075858,7.65338837 L17.4075858,10.6420071 C17.4075858,10.8231508 17.295822,10.981549 17.1170351,10.9363813 L16.5360694,10.8457306 C16.2902514,10.8004053 16.089178,10.5966777 16.089178,10.347641 L16.089178,7.3364384 Z M3.57521149,15.1021088 C3.57521149,15.3511617 3.41871109,15.5776388 3.17305666,15.5776388 L2.25681564,15.6002223 C2.01099761,15.6002223 1.78746209,15.4190786 1.78746209,15.1700135 L1.78746209,11.90975 C1.78746209,11.7060224 2.01098962,11.5248827 2.212083,11.5023029 L3.15063049,11.4343937 C3.39644852,11.4118103 3.5752514,11.6155375 3.5752514,11.8418408 L3.57521149,15.1021088 Z M3.57521149,10.0306506 C3.57521149,10.3022873 3.44115722,10.5061806 3.17305666,10.5513402 L2.21224262,10.6418333 C1.98871508,10.6644167 1.78762171,10.4832734 1.78762171,10.2795499 L1.7874658,7.7213016 C1.7874658,7.49483253 2.01099334,7.29109284 2.23435327,7.26853326 L3.17290076,7.13271489 C3.39642829,7.11013146 3.55276907,7.26853326 3.55276907,7.49499829 L3.55276907,10.030687 L3.57521149,10.0306506 Z M3.57521149,5.88745035 C3.57521149,6.11391942 3.46344773,6.31765911 3.24007981,6.34021868 L2.14506784,6.47603706 C1.96627694,6.49862049 1.78749002,6.36280252 1.78749002,6.18166284 L1.78749002,3.62341459 C1.78749002,3.39694552 2.01101756,3.19320583 2.23437749,3.17064625 L3.15061852,3.01208637 C3.39643655,2.96676102 3.57523943,3.14790474 3.57523943,3.3969536 L3.57521149,5.88745035 Z M6.48011971,14.9436257 C6.48011971,15.2379999 6.30132881,15.4870367 6.01076616,15.4870367 L5.11699122,15.5096201 C4.89346369,15.5096201 4.69237031,15.3284764 4.69237031,15.1021731 L4.69252618,11.683386 C4.69252618,11.4569169 4.91605371,11.275939 5.13941365,11.275939 L6.07796113,11.2080298 C6.30148867,11.1854464 6.48011971,11.3665897 6.48011971,11.6154768 L6.48011971,14.9436257 Z M6.48011971,9.82688663 C6.48011971,10.0759395 6.34606544,10.2570954 6.1225419,10.279655 L5.02752993,10.370148 C4.87102953,10.3927314 4.71468875,10.2569135 4.71468875,10.0985112 L4.71484461,7.26845645 C4.71484461,7.08731272 4.91592602,6.92891456 5.09471293,6.90617304 L6.1897249,6.77035467 C6.3685158,6.74777124 6.50256608,6.88358921 6.50256608,7.06472889 L6.50256608,9.82686237 L6.48011971,9.82688663 Z M6.48011971,5.54784377 C6.48011971,5.75157133 6.39080208,5.91012717 6.18956903,5.93271101 L5.09455706,6.06852938 C4.89347566,6.09111281 4.69240223,5.93271101 4.69240223,5.72898749 L4.6925581,3.03473489 C4.6925581,2.85359117 4.89363951,2.695193 5.07242642,2.64986765 L6.18974485,2.44614009 C6.36853575,2.42355666 6.50258603,2.55937463 6.50258603,2.74051431 L6.50258603,5.54784781 L6.48011971,5.54784377 Z M9.60869114,14.9436257 C9.60869114,15.1700948 9.47463687,15.3738345 9.25111333,15.3738345 L8.24556664,15.4191598 C8.04448524,15.4191598 7.84341181,15.2605999 7.84341181,15.0568764 L7.84325595,11.4117658 C7.84325595,11.2080383 8.04433735,11.0494824 8.24541077,11.0268986 L9.31799657,10.9589894 C9.51907797,10.936406 9.65312825,11.0948078 9.65312825,11.2985313 L9.65344002,14.9436419 L9.60869114,14.9436257 Z M9.60869114,9.60048225 C9.60869114,9.80420981 9.5193735,9.96276565 9.31814046,9.98534949 L8.17851556,10.0758425 C7.99972466,10.0984259 7.82093775,9.94002414 7.82093775,9.75888446 L7.82093775,6.86107006 C7.82093775,6.6573425 8.02201915,6.49878666 8.20080607,6.47620282 L9.2510854,6.36296828 C9.4521668,6.34038485 9.58621708,6.49878666 9.58621708,6.70251017 L9.58621708,9.60048629 L9.60869114,9.60048225 Z M9.60869114,5.14031588 C9.60869114,5.29887576 9.54166401,5.45727393 9.38516361,5.47985777 L8.15607342,5.66100149 C7.99957302,5.68358492 7.82094174,5.57050847 7.82094174,5.38936474 L7.82094174,2.51415035 C7.82094174,2.33300663 7.99973264,2.15186695 8.20081006,2.12928311 L9.34043496,1.90281404 C9.49693536,1.85748869 9.6085435,1.97072323 9.6085435,2.12928311 L9.60869114,5.14031588 Z M14.0556185,12.4531775 L13.586265,12.9059458 L13.6980287,13.5624377 C13.7427654,13.8793957 13.4074781,14.1284486 13.1393695,13.9698847 L12.5584038,13.6529267 L11.9774381,13.9698847 C11.6868875,14.1284446 11.3740463,13.8793917 11.4187789,13.5624377 L11.5305427,12.9059458 L11.0611891,12.4304158 C10.8376616,12.2039467 10.9718715,11.8190835 11.2847167,11.7739239 L11.9326816,11.6834309 L12.2232322,11.0948199 C12.3572865,10.8004457 12.7818915,10.8004457 12.9159298,11.0948199 L13.2064804,11.7061522 L13.8544453,11.7966452 C14.144996,11.8192286 14.2790662,12.2266922 14.0555267,12.4531371 L14.0556185,12.4531775 Z M14.0556185,7.69868542 L13.586265,8.15145376 L13.6980287,8.80794561 C13.7427654,9.12490367 13.4074781,9.37395657 13.1393695,9.21539265 L12.5584038,8.89843459 L11.9774381,9.21539265 C11.6868875,9.37395253 11.3740463,9.12489962 11.4187789,8.80794561 L11.5305427,8.15145376 L11.0611891,7.67592369 C10.8376616,7.44945462 10.9718715,7.06459143 11.2847167,7.01943184 L11.9326816,6.92893881 L12.2232322,6.34032784 C12.3572865,6.04595363 12.7818915,6.04595363 12.9159298,6.34032784 L13.2064804,6.95166011 L13.8544453,7.04215313 C14.144996,7.06473657 14.2790662,7.47220018 14.0555267,7.69864499 L14.0556185,7.69868542 Z M14.0556185,2.94419335 L13.586265,3.39696169 L13.6980287,4.05345355 C13.7427654,4.3704116 13.4074781,4.61946451 13.1393695,4.46090058 L12.5584038,4.14394253 L11.9774381,4.46090058 C11.6868875,4.61946046 11.3740463,4.37040755 11.4187789,4.05345355 L11.5305427,3.39696169 L11.0611891,2.92143162 C10.8376616,2.69496255 10.9718715,2.31009936 11.2847167,2.26493977 L11.9326816,2.17444674 L12.2232322,1.58583578 C12.3572865,1.29146156 12.7818915,1.29146156 12.9159298,1.58583578 L13.2064804,2.19716804 L13.8544453,2.28766107 C14.144996,2.3102445 14.2790662,2.71786983 14.0555267,2.94415292 L14.0556185,2.94419335 Z M17.8769274,16.5284564 C17.8769274,16.7096001 17.8321907,17.0944674 17.6533998,17.0944674 L15.9103831,17.0944674 C15.7093017,17.0944674 15.418763,16.7096001 15.418763,16.4831351 L15.418763,14.1286104 C15.418763,13.8342361 15.7316042,13.6305207 15.9997287,13.6530803 L17.4746289,13.8568079 C17.7204469,13.8793913 17.8544972,14.1058608 17.8544972,14.3323379 L17.8546531,16.5284604 L17.8769274,16.5284564 Z" id="Shape"></path>
            </g>
        </g>
    </g>
</svg>