<?xml version="1.0" encoding="UTF-8"?>
<svg width="17px" height="17px" viewBox="0 0 17 17" version="1.1" xmlns="http://www.w3.org/2000/svg" xmlns:xlink="http://www.w3.org/1999/xlink">
    <title>9A606F32-B797-477B-940D-643A37737651</title>
    <g id="Page-1" stroke="none" stroke-width="1" fill="none" fill-rule="evenodd">
        <g id="transfer" transform="translate(-607.000000, -205.000000)" fill="#000000" fill-rule="nonzero">
            <g id="Group-4" transform="translate(607.000000, 142.000000)">
                <g id="Shape-2-Copy" transform="translate(0.000000, 63.000000)">
                    <path d="M8.5,0 C3.8055819,0 0,3.80568658 0,8.5 C0,13.1944181 3.80568658,17 8.5,17 C13.1944181,17 17,13.1943134 17,8.5 C17,3.8055819 13.1943134,0 8.5,0 Z M8.5,2.93103448 C8.82385314,2.93103448 9.08615456,3.19355049 9.08615456,3.51718904 L9.08615456,8.26169643 L12.0264009,11.1927309 C12.2553879,11.421718 12.2553879,11.7973091 12.0264009,12.0262962 C11.7974138,12.2552833 11.4218227,12.2552833 11.1928356,12.0262962 L8.08782328,8.91207204 C7.98171459,8.80596336 7.91383498,8.66182451 7.91383498,8.49989532 L7.91383498,3.51718904 C7.91383498,3.1933359 8.17635099,2.93103448 8.49998953,2.93103448 L8.5,2.93103448 Z" id="Shape"></path>
                </g>
            </g>
        </g>
    </g>
</svg>