<?xml version="1.0" encoding="UTF-8"?>
<svg width="14px" height="17px" viewBox="0 0 14 17" version="1.1" xmlns="http://www.w3.org/2000/svg" xmlns:xlink="http://www.w3.org/1999/xlink">
    <title>026E66F7-EEAA-453D-A8C2-F688E1BB6522</title>
    <g id="Page-1" stroke="none" stroke-width="1" fill="none" fill-rule="evenodd">
        <g id="transfer" transform="translate(-1297.000000, -145.000000)" fill="#000000" fill-rule="nonzero">
            <g id="Group-2-Copy" transform="translate(1297.000000, 145.000000)">
                <path d="M7.00001817,7.95566502 C9.13666578,7.95566502 10.8662671,6.1760336 10.8662671,3.97783251 C10.8662671,1.77951926 9.13655676,0 7.00001817,0 C4.86337056,0 3.1337692,1.77963142 3.1337692,3.97783251 C3.1337692,6.1760336 4.86333422,7.95566502 7.00001817,7.95566502 Z" id="Path"></path>
                <path d="M0.610533037,17 L13.3895033,17 C13.7354127,17 14,16.7277876 14,16.3718838 L14,14.0688534 C14,10.9493578 11.5377372,8.416144 8.50585673,8.416144 L5.49414327,8.41629007 C2.46215379,8.41629007 0,10.9496161 0,14.0689994 L0,16.3720299 C0,16.7277767 0.264576428,17 0.6104967,17 L0.610533037,17 Z" id="Path"></path>
            </g>
        </g>
    </g>
</svg>