<?xml version="1.0" encoding="UTF-8"?>
<svg width="14px" height="16px" viewBox="0 0 14 16" version="1.1" xmlns="http://www.w3.org/2000/svg" xmlns:xlink="http://www.w3.org/1999/xlink">
    <title>2E5BCBCE-A09D-464E-8D11-67F85C53FD60</title>
    <g id="Page-1" stroke="none" stroke-width="1" fill="none" fill-rule="evenodd">
        <g id="cars-copy" transform="translate(-332.000000, -373.000000)" fill="#000000" fill-rule="nonzero">
            <g id="Group-3" transform="translate(331.000000, 200.000000)">
                <g id="noun-freeze-1662667" transform="translate(1.000000, 173.000000)">
                    <path d="M13.9798698,9.15242041 C14.010127,9.2684073 13.9943835,9.39210531 13.935961,9.49608887 C13.8775367,9.60007244 13.7812302,9.67600942 13.6683205,9.70721614 L11.6794684,10.2544334 L13.5830849,11.3812131 C13.6866492,11.439965 13.7627819,11.5391486 13.7943918,11.656274 C13.8260017,11.7732733 13.8105044,11.8986112 13.7513426,12.0038563 C13.6921808,12.1091013 13.5943982,12.18542 13.4797662,12.2158698 C13.3652571,12.2461935 13.2436129,12.2279993 13.1422559,12.1653303 L11.2423234,11.0385506 L11.7750224,13.0823833 L11.7750224,13.082257 C11.8052796,13.1982439 11.789536,13.3219419 11.7311136,13.4259255 C11.6726892,13.5300384 11.5763828,13.605846 11.4634731,13.6370527 C11.4263278,13.6472871 11.3880772,13.6525937 11.3495779,13.6528463 C11.1502015,13.6527199 10.9756684,13.5148743 10.92425,13.3170054 L10.1638991,10.3992358 L7.44098793,8.78410724 L7.44098793,12.0128118 L9.52023954,14.1487316 C9.60400156,14.2333856 9.65147784,14.3488679 9.65196903,14.4695319 C9.65258401,14.5903221 9.60609231,14.706309 9.52306708,14.7917199 C9.44004501,14.8771308 9.32725502,14.9248918 9.20967268,14.9245134 C9.09209035,14.924135 8.97966876,14.8754909 8.89713788,14.789446 L7.44098478,13.2936068 L7.44098478,15.5471663 C7.44098478,15.7973375 7.24357632,16 7.00016518,16 C6.75675404,16 6.55934557,15.7973375 6.55934557,15.5471663 L6.55934557,13.2936068 L5.10319247,14.7924865 C5.0206616,14.8785314 4.90824315,14.9271754 4.79065767,14.9275538 C4.67307219,14.9279323 4.56028535,14.8801745 4.47726327,14.7947604 C4.3942412,14.7093494 4.34774732,14.5933593 4.34836132,14.4725724 C4.34885331,14.3519084 4.39632879,14.2362999 4.48009081,14.151772 L6.55934243,12.0158523 L6.55934243,8.78410724 L3.83655717,10.3992358 L3.07608038,13.3162614 C3.02466822,13.51425 2.85013514,13.6519729 2.65075243,13.6521023 C2.61225314,13.6518496 2.57400259,13.6465428 2.53685724,13.6363088 C2.4239476,13.6052269 2.32764111,13.5292912 2.26921677,13.4251815 C2.21079243,13.3211979 2.19504887,13.1976261 2.22530799,13.081513 L2.75800699,11.0376803 L0.858074497,12.1661096 C0.756723773,12.2287786 0.635082752,12.2469728 0.520564116,12.2166491 C0.405932127,12.186199 0.308148892,12.1098839 0.248987753,12.0046356 C0.189826613,11.8993873 0.174328655,11.7740494 0.20593857,11.6570534 C0.237548484,11.5399279 0.313684327,11.4407444 0.417245447,11.3819924 L2.31717794,10.2552127 L0.328325835,9.70799547 C0.0924180756,9.64330493 -0.0479136967,9.39452454 0.0150542351,9.15204501 C0.0779056645,8.9097078 0.320208457,8.76555141 0.556128812,8.83023548 L3.40017095,9.61434945 L6.11851652,8 L3.40017095,6.38564486 L0.556128812,7.16975883 C0.518983463,7.18011934 0.480732916,7.18542623 0.442233621,7.18567885 C0.220592673,7.18618424 0.0330270801,7.01750933 0.00412190888,6.79184287 C-0.0246592031,6.56605673 0.11408121,6.35340277 0.328344728,6.29505191 L2.31719683,5.74783468 L0.417264339,4.61879078 C0.211366948,4.49155743 0.142734485,4.21825933 0.262905057,4.00448946 C0.38307563,3.79071959 0.647772059,3.71515134 0.858074497,3.8346768 L2.75800699,4.96145654 L2.22458378,2.91775317 C2.18891518,2.79999699 2.20133748,2.67251135 2.25914719,2.56447816 C2.31707718,2.45657758 2.41522882,2.3774837 2.53109195,2.34551687 C2.64695509,2.31355069 2.7705672,2.33136581 2.87326242,2.39517332 C2.97596395,2.45885469 3.0489007,2.5627121 3.07534673,2.68299445 L3.83657921,5.60076398 L6.55936447,7.21589256 L6.55936447,3.98718797 L4.48011286,1.85126824 C4.30705653,1.67450783 4.30631973,1.38717835 4.47839089,1.20940876 C4.65033887,1.03163594 4.93016801,1.03075291 5.10322119,1.20751352 L6.55937429,2.70639321 L6.55937429,0.452833743 C6.55937429,0.202662507 6.75678276,2.84217094e-14 7.00019389,2.84217094e-14 C7.24360503,2.84217094e-14 7.4410135,0.202662507 7.4410135,0.452833743 L7.4410135,2.70639321 L8.8971666,1.20751352 C9.06985453,1.03327927 9.34696003,1.03454073 9.51806101,1.21041955 C9.6891494,1.38642309 9.6901318,1.67108085 9.52027493,1.84823588 L7.44102332,3.98719606 L7.44102332,7.21590065 L10.1638086,5.60077207 L10.9241594,2.68300254 L10.9242824,2.68300254 C10.9507266,2.56271696 11.023662,2.45885954 11.1263667,2.39518141 C11.2290682,2.3313739 11.3526803,2.31356136 11.4685372,2.34552495 C11.5844003,2.37749114 11.682552,2.45658566 11.740482,2.56448624 C11.7982891,2.67251297 11.810714,2.7999986 11.7750454,2.91776125 L11.2423464,4.96159401 L13.1422788,3.83394095 C13.3526033,3.71441548 13.6172935,3.78997079 13.7374483,4.0037536 C13.8576031,4.21753641 13.7889832,4.49084098 13.583089,4.61805492 L11.6831565,5.74570798 L13.6720086,6.29292521 L13.6720086,6.29279887 C13.886269,6.35117237 14.0250107,6.56381663 13.9962314,6.78958983 C13.9673272,7.01524982 13.7797575,7.18391099 13.5581197,7.18342581 C13.5196204,7.18317313 13.4813699,7.1778663 13.4442245,7.16750579 L10.6001824,6.38565599 L7.88183682,8 L10.6001824,9.61436057 L13.4442245,8.8302466 C13.6786555,8.76846067 13.9176333,8.91224832 13.9798833,9.15243458 L13.9798698,9.15242041 Z" id="Path"></path>
                </g>
            </g>
        </g>
    </g>
</svg>