<?xml version="1.0" encoding="UTF-8"?>
<svg width="19px" height="10px" viewBox="0 0 19 10" version="1.1" xmlns="http://www.w3.org/2000/svg" xmlns:xlink="http://www.w3.org/1999/xlink">
    <title>9CC4FACF-9EAE-4F84-9062-A7793F29541A</title>
    <g id="Page-1" stroke="none" stroke-width="1" fill="none" fill-rule="evenodd">
        <g id="cars-copy" transform="translate(-331.000000, -864.000000)" fill="#000000" fill-rule="nonzero">
            <g id="Group-6" transform="translate(331.000000, 864.000000)">
                <path d="M17.2389035,0 L1.76127834,0 C1.29384171,0 0.845608759,0.197290961 0.515176492,0.548542793 C0.184900297,0.899639721 -0.000506845841,1.37584202 1.04069568e-06,1.8721495 L1.04069568e-06,8.32771321 C1.04069568e-06,8.45703342 0.098741585,8.56173114 0.220406753,8.56173114 L1.84871616,8.56173114 C1.84871616,7.7538489 2.25467387,7.0073523 2.91363839,6.6033392 C3.57273863,6.1993261 4.38462011,6.1993261 5.04358463,6.6033392 C5.70254916,7.0073523 6.10850686,7.75388492 6.10850686,8.56173114 L12.4107754,8.56173114 C12.4330412,7.76948347 12.8440458,7.0474474 13.494121,6.65791609 C14.1443319,6.26852888 14.9388758,6.26852888 15.5890867,6.65791609 C16.2392976,7.04741137 16.650141,7.76944744 16.6724322,8.56173114 L18.7795783,8.56173114 C18.8997879,8.56187174 18.9978624,8.45942904 19.000001,8.33179477 L19.000001,1.87623106 C19.0014409,1.37920309 18.8165573,0.902024533 18.4861318,0.54995855 C18.155591,0.197878158 17.7068219,0 17.2387067,0 L17.2389035,0 Z M5.84833768,4.84167278 L1.58654519,4.84181349 L1.58654519,1.5191435 L5.84833768,1.5191435 L5.84833768,4.84167278 Z M11.761104,4.84167278 L7.49931151,4.84181349 L7.49931151,1.5191435 L11.761104,1.5191435 L11.761104,4.84167278 Z M17.4136367,4.84167278 L13.1518442,4.84181349 L13.1518442,1.5191435 L17.4136367,1.5191435 L17.4136367,4.84167278 Z" id="Shape"></path>
                <path d="M3.97886259,7.13532113 C3.62050694,7.1332324 3.27602817,7.28253511 3.02156241,7.55034374 C2.76709665,7.81813435 2.62344225,8.18246302 2.62221333,8.56295222 C2.62102801,8.94333334 2.76244163,9.30862026 3.01531952,9.57826253 C3.26806169,9.84788318 3.61158368,9.99956732 3.96997325,10 C4.3282271,10.000281 4.67199338,9.84928813 4.92527163,9.58024387 C5.17867881,9.3111852 5.32074534,8.94614324 5.32023777,8.56565405 C5.31917614,8.18768655 5.17776273,7.82546171 4.92659485,7.55754861 C4.67531161,7.28975799 4.33484321,7.13804504 3.97882866,7.13537924 L3.97886259,7.13532113 Z" id="Path"></path>
                <path d="M14.5425844,7.13534164 C14.1846019,7.1347803 13.8410732,7.28535221 13.5876592,7.5538381 C13.334252,7.82247168 13.1917783,8.18678595 13.1916425,8.56702297 C13.1915101,8.9471159 13.333587,9.31171836 13.5867431,9.58049604 C13.8398823,9.84927012 14.1832787,10.0001077 14.5412611,9.99999967 C14.8992436,9.99985886 15.2425009,9.84858566 15.495372,9.57952338 C15.7483788,9.31046471 15.8902011,8.94571095 15.8896598,8.56561802 C15.8885979,8.18664185 15.7463872,7.82344434 15.4940488,7.55538715 C15.2415713,7.28745603 14.899515,7.13631587 14.5425844,7.13534164 L14.5425844,7.13534164 Z" id="Path"></path>
            </g>
        </g>
    </g>
</svg>