<?xml version="1.0" encoding="UTF-8"?>
<svg width="17px" height="17px" viewBox="0 0 17 17" version="1.1" xmlns="http://www.w3.org/2000/svg" xmlns:xlink="http://www.w3.org/1999/xlink">
    <title>459333AA-7F6E-420A-AB4A-A8A6B4744DFB</title>
    <g id="Page-1" stroke="none" stroke-width="1" fill="none" fill-rule="evenodd">
        <g id="cars-copy-2" transform="translate(-896.000000, -2500.000000)" fill="#000000" fill-rule="nonzero">
            <g id="Group-19-Copy-4" transform="translate(896.000000, 2441.000000)">
                <g id="Group-2" transform="translate(0.000000, 59.000000)">
                    <path d="M10.2250224,7.05491665 C10.2250224,6.92919577 10.1356173,6.83953801 10.028381,6.80360311 C7.68666829,6.31888256 5.84541729,4.46988573 5.36276763,2.10032961 C5.34493672,1.97460873 5.23757558,1.90285752 5.11251122,1.90285752 C4.98731918,1.90285752 4.89803857,1.99264029 4.86225482,2.10032961 C4.37957324,4.46985367 2.53835416,6.31891462 0.196641431,6.80360311 C0.0894051039,6.82163467 0,6.92932399 0,7.05491665 C0,7.18063754 0.0894051039,7.27029529 0.196641431,7.3062302 C2.53835416,7.79095075 4.37960516,9.63994758 4.86225482,11.9915523 C4.88008573,12.1172732 4.98744687,12.1890244 5.11251122,12.1890244 C5.23770327,12.1890244 5.32698388,12.0992416 5.36276763,11.9915523 C5.84544921,9.63994758 7.68666829,7.79091869 10.028381,7.3062302 C10.1356173,7.27041711 10.2250224,7.18063433 10.2250224,7.05491665 Z" id="Path"></path>
                    <path d="M16.7854827,3.51848582 C15.1587426,3.12355446 13.8896166,1.84906736 13.4963146,0.197472092 C13.4605277,0.0897827727 13.3711226,0 13.2460582,0 C13.1208661,0 13.0315855,0.0717512068 12.9958018,0.197472092 C12.6203438,1.84900324 11.3512178,3.12345829 9.72450964,3.51848582 C9.61727331,3.55442393 9.52786821,3.64420671 9.52786821,3.76979937 C9.52786821,3.89552025 9.5993176,3.98517801 9.72450964,4.02111291 C11.333278,4.41604428 12.6203757,5.70857897 13.0136777,7.32417521 C13.0494646,7.43186453 13.1388697,7.52164731 13.2639341,7.52164731 C13.3891261,7.52164731 13.4784068,7.4498961 13.5141905,7.32417521 C13.9074606,5.70861103 15.1945583,4.41607633 16.8033586,4.02111291 C16.9105949,3.9851748 17,3.89539203 17,3.76979937 C16.9821691,3.6442035 16.9107194,3.53651739 16.7855273,3.51848582 L16.7854827,3.51848582 Z" id="Path"></path>
                    <path d="M14.5688694,12.9968385 C12.9421294,12.6019072 11.6730034,11.32742 11.2797013,9.67582479 C11.2439144,9.56813547 11.1545093,9.47835269 11.0294449,9.47835269 C10.9042529,9.47835269 10.8149723,9.5501039 10.7791885,9.67582479 C10.3859184,11.3273559 9.11679243,12.6019392 7.49002047,12.9968385 C7.38278414,13.0327766 7.29337904,13.1225594 7.29337904,13.2481521 C7.29337904,13.3738729 7.36482843,13.4635307 7.49002047,13.4994656 C9.09878883,13.894397 10.3858865,15.1869317 10.7791885,16.8025279 C10.8149755,16.9102172 10.9043806,17 11.0294449,17 C11.154637,17 11.2439176,16.9282488 11.2797013,16.8025279 C11.6551594,15.1690444 12.9600691,13.8765417 14.5688694,13.4815142 C14.6761057,13.4455761 14.7655108,13.3557933 14.7655108,13.2302006 C14.7476799,13.1225113 14.6762302,13.014822 14.5688694,12.9967936 L14.5688694,12.9968385 Z" id="Path"></path>
                </g>
            </g>
        </g>
    </g>
</svg>