<?xml version="1.0" encoding="UTF-8"?>
<svg width="16px" height="16px" viewBox="0 0 16 16" version="1.1" xmlns="http://www.w3.org/2000/svg" xmlns:xlink="http://www.w3.org/1999/xlink">
    <title>2FB55B18-53F1-47FA-84BE-59D406B6983A</title>
    <g id="Page-1" stroke="none" stroke-width="1" fill="none" fill-rule="evenodd">
        <g id="cars" transform="translate(-730.000000, -149.000000)" fill="#1D1D1D" fill-rule="nonzero">
            <path d="M732.889016,149 L732.889016,150.201247 L730.899048,150.201247 C730.403397,150.201247 730,150.61784 730,151.129735 L730,164.071249 C730,164.583276 730.403397,165 730.899048,165 L745.100952,165 C745.596603,165 746,164.583276 746,164.071249 L746,151.129735 C746,150.617709 745.596479,150.200984 745.100828,150.200984 L743.110987,150.201112 L743.110987,149 L741.808543,149 L741.808543,150.201244 L734.191082,150.201244 L734.191082,149 L732.889016,149 Z M734.311873,158.504942 L732.823524,158.504942 L732.823524,156.969224 L734.311873,156.969224 L734.311873,158.504942 Z M734.32105,160.788285 L734.32105,162.325807 L732.8327,162.325807 L732.8327,160.788285 L734.32105,160.788285 Z M738.667081,158.504942 L737.178732,158.504942 L737.178732,156.969224 L738.667081,156.969224 L738.667081,158.504942 Z M738.676506,160.788285 L738.676506,162.325807 L737.188157,162.325807 L737.188157,160.788285 L738.676506,160.788285 Z M743.024443,158.504942 L741.536093,158.504942 L741.536093,156.969224 L743.024443,156.969224 L743.024443,158.504942 Z M743.033743,160.788285 L743.033743,162.325807 L741.545394,162.325807 L741.545394,160.788285 L743.033743,160.788285 Z M745.039807,154.957028 L730.961077,154.957028 L730.961077,153.611553 L745.039807,153.611553 L745.039807,154.957028 Z" id="Shape"></path>
        </g>
    </g>
</svg>