<?xml version="1.0" encoding="UTF-8"?>
<svg width="16px" height="14px" viewBox="0 0 16 14" version="1.1" xmlns="http://www.w3.org/2000/svg" xmlns:xlink="http://www.w3.org/1999/xlink">
    <title>0ACCBAE8-97AA-47CC-86C0-EC147D8ACDA8</title>
    <g id="Page-1" stroke="none" stroke-width="1" fill="none" fill-rule="evenodd">
        <g id="cars-copy-2" transform="translate(-948.000000, -567.000000)" fill="#000000" fill-rule="nonzero">
            <g id="Path-8" transform="translate(948.000000, 567.000000)">
                <path d="M16,1.90915018 C16,0.854810534 15.1734789,0 14.1537485,0 C13.134145,0 12.3074969,0.854679222 12.3074969,1.90915018 C12.3074969,2.73920833 12.8228702,3.4384794 13.5383101,3.70136671 L13.5383101,5.09104525 C13.5383101,5.79389457 12.987349,6.36379015 12.3074969,6.36379015 L8.61537485,6.36366192 L8.61537485,3.70136979 C9.33078303,3.43848905 9.84618803,2.73921142 9.84618803,1.90915326 C9.84618803,0.85481362 9.01966698,0 7.99993651,0 C6.98020604,0 6.15368498,0.854682308 6.15368498,1.90915326 C6.15368498,2.73921142 6.66905824,3.43848248 7.38449817,3.70136979 L7.38449817,6.36366192 L2.46156288,6.36366192 L2.46156288,3.70136979 C3.17697106,3.43848905 3.69237607,2.73921142 3.69237607,1.90915326 C3.69237607,0.85481362 2.86585501,0 1.84612454,0 C0.826267084,0 0,0.854682308 0,1.90915326 C0,2.73921142 0.51537326,3.43848248 1.23081319,3.70136979 L1.23081319,10.298502 C0.515405006,10.5616388 0,11.2607588 0,12.0907185 C0,13.1450582 0.826521056,14 1.84625153,14 C2.865982,14 3.69250306,13.1451895 3.69250306,12.0907185 C3.69250306,11.2606604 3.1771298,10.5613893 2.46168987,10.298502 L2.46168987,7.63634116 L7.38462515,7.63634116 L7.38462515,10.2986333 C6.66921697,10.561514 6.15381197,11.2607917 6.15381197,12.0908498 C6.15381197,13.1451895 6.98033302,14 8.00006349,14 C9.01979396,14 9.84631502,13.1453208 9.84631502,12.0908498 C9.84631502,11.2607917 9.33094176,10.5615206 8.61550183,10.2986333 L8.61562584,7.63634116 L12.3077479,7.63634116 C13.6651663,7.63634116 14.7693426,6.49428488 14.7693426,5.0908842 L14.7693426,3.70120565 C15.4844968,3.43819688 16,2.73904728 16,1.90912043 L16,1.90915018 Z" id="Path"></path>
            </g>
        </g>
    </g>
</svg>