<?xml version="1.0" encoding="UTF-8"?>
<svg width="17px" height="20px" viewBox="0 0 17 20" version="1.1" xmlns="http://www.w3.org/2000/svg" xmlns:xlink="http://www.w3.org/1999/xlink">
    <title>F3EE5808-CCB7-4ADB-B5A2-91CA0E0995D3</title>
    <g id="Page-1" stroke="none" stroke-width="1" fill="none" fill-rule="evenodd">
        <g id="cars-copy" transform="translate(-757.000000, -983.000000)" fill="#000000" fill-rule="nonzero">
            <g id="Group-9" transform="translate(757.000000, 983.000000)">
                <g id="Group-8" transform="translate(1.935218, 0.701178)">
                    <path d="M6.44318201,4.23076467 L6.33115959,5.3719434 L5.26855242,6.85665221 L6.14094516,6.97187093 L7.39119924,5.53426304 C7.39119924,5.53426304 7.39119924,4.72724464 6.4431733,4.23076467 L6.44318201,4.23076467 Z" id="Path"></path>
                    <polygon id="Path" points="4.92747196 3.16479617 4.92747196 1.37891029 3.9430655 1.56716696 3.9430655 2.9765395"></polygon>
                    <polygon id="Path" points="0 2.02361745 1.32575672 2.02361745 1.32575672 2.5178201 0 2.5178201"></polygon>
                    <polygon id="Path" points="1.93217129 2.02361745 3.25792801 2.02361745 3.25792801 2.5178201 1.93217129 2.5178201"></polygon>
                    <polygon id="Path" points="1.54747773 0.482353895 0.309626097 0 0.131648752 0.461219399 1.36715044 0.943573294"></polygon>
                    <polygon id="Path" points="2.11276838 0.703614837 1.93241064 1.16466617 3.17043633 1.64702006 3.34841368 1.18580066"></polygon>
                    <polygon id="Path" points="3.4335206 3.34126711 3.25571297 2.88004771 2.01768728 3.36240161 2.19804502 3.82362101"></polygon>
                    <polygon id="Path" points="1.63277177 4.04210883 1.45241403 3.5810575 0.216912338 4.06328535 0.394719965 4.52450474"></polygon>
                    <path d="M11.6778866,5.71523399 L11.6778866,4.10824342 C11.9532689,3.85417149 12.589358,3.84711685 13.2910756,3.93640274 C13.5460613,3.96857171 13.8024047,3.88913374 13.9905738,3.71991912 C14.1841913,3.54725491 14.2938377,3.30385527 14.2928221,3.04945561 L14.2928221,2.8140938 C11.151383,0.468206808 6.56021327,1.0635021 5.44877961,1.2540487 L5.44877961,3.28695188 C7.77848209,3.41644793 8.03688824,5.71523399 8.03688824,5.71523399 L11.6778866,5.71523399 Z" id="Path"></path>
                    <path d="M11.4341893,6.47530692 L8.02251445,6.47530692 C7.2352852,10.4140542 4.56201308,11.1269968 4.39138146,14.809357 C4.32066574,16.3457466 5.14679951,17.7387326 6.21671761,18.7505833 C6.59613686,19.1052647 7.10438495,19.302223 7.63255528,19.2988221 L11.819231,19.2988221 C12.3474014,19.3022243 12.8558148,19.1052689 13.2352428,18.7505833 C14.3051609,17.7389006 15.1311206,16.3459567 15.0605789,14.809357 C14.8899081,11.1269548 12.2165011,10.4139702 11.4341893,6.47530692 L11.4341893,6.47530692 Z" id="Path"></path>
                </g>
                <polygon id="Path" points="0 2.7247953 1.32575672 2.7247953 1.32575672 3.21899796 0 3.21899796"></polygon>
                <polygon id="Path" points="0.263280097 0.461219399 1.5013058 0.943573294 1.67928314 0.482353895 0.44360738 0"></polygon>
                <polygon id="Path" points="1.58664336 4.98572414 0.348617662 5.46807804 0.526595008 5.92929744 1.76444664 5.44694354"></polygon>
            </g>
        </g>
    </g>
</svg>