<?xml version="1.0" encoding="UTF-8"?>
<svg width="40px" height="40px" viewBox="0 0 40 40" version="1.1" xmlns="http://www.w3.org/2000/svg" xmlns:xlink="http://www.w3.org/1999/xlink">
    <title>AEBE1B13-1F5B-47F3-84B9-A95A68C60689</title>
    <g id="Page-1" stroke="none" stroke-width="1" fill="none" fill-rule="evenodd">
        <g id="cars-copy-2" transform="translate(-662.000000, -410.000000)">
            <g id="Group-8" transform="translate(662.000000, 410.000000)">
                <circle id="Oval" fill-opacity="0.384615385" fill="#410F4E" cx="20" cy="20" r="20"></circle>
                <circle id="Oval" fill="#410F4E" cx="20" cy="20" r="11"></circle>
                <g id="Shape-2" transform="translate(18.000000, 15.000000)" fill="#FFFFFF" fill-rule="nonzero">
                    <path d="M2.9480169,2.97066173 L0.59503211,3.38241843 L0.415162823,3.94125734 L0.608935133,3.92658877 C0.858027884,3.9119202 1.01028144,3.9119202 1.0934277,4.00013776 C1.16265364,4.07368675 1.17646027,4.13246449 1.17646027,4.16190457 C1.17646027,4.30900255 1.13494398,4.54422381 1.05191142,4.85306759 L0.124548847,8.23535472 C0.0415162823,8.5147873 0,8.7501031 0,8.94119707 C0,9.25006711 0.0969355882,9.50003599 0.304507113,9.70591434 C0.498279424,9.8971186 0.761267783,10 1.07959141,10 C1.88238289,10 2.64367539,9.35292751 3.33573701,8.07359316 L3.40496295,7.95592751 L2.94820228,7.67650267 L2.87887995,7.77938932 C2.60208002,8.22058347 2.38059558,8.52934847 2.18681833,8.69111003 C2.13149542,8.73521894 2.08988274,8.76465902 2.04836646,8.76465902 C2.04836646,8.76465902 2.03456007,8.76465902 2.0206568,8.73521894 C1.99294715,8.70577886 1.99294715,8.69111003 1.99294715,8.69111003 C1.99294715,8.64700112 2.00675353,8.52934322 2.10368937,8.16170857 L3.51551979,2.95592751 L2.94800455,2.95592751 L2.9480169,2.97066173 Z M3.66778571,2.02950358 C3.88926767,1.7941904 4,1.51475519 4,1.19123207 C4,0.867708956 3.88925778,0.588276368 3.68167637,0.352960569 C3.47409743,0.117647396 3.1971838,0 2.89267669,0 C2.58816958,0 2.32516145,0.1176579 2.10367701,0.352960569 C1.89609807,0.588273742 1.78535338,0.867708956 1.78535338,1.19123207 C1.78535338,1.51475519 1.8960956,1.79418778 2.11756768,2.02950358 C2.33904964,2.26481675 2.60206024,2.38246414 2.89265197,2.38246414 C3.19715909,2.36779557 3.46016722,2.25013741 3.66773627,2.02950358" id="Shape"></path>
                </g>
            </g>
        </g>
    </g>
</svg>