<?xml version="1.0" encoding="UTF-8"?>
<svg width="16px" height="16px" viewBox="0 0 16 16" version="1.1" xmlns="http://www.w3.org/2000/svg" xmlns:xlink="http://www.w3.org/1999/xlink">
    <title>79BF9822-E795-4FDD-97BE-458F843FC33C</title>
    <g id="Page-1" stroke="none" stroke-width="1" fill="none" fill-rule="evenodd">
        <g id="cars-copy" transform="translate(-626.000000, -344.000000)" fill="#000000" fill-rule="nonzero">
            <g id="Group-3" transform="translate(331.000000, 200.000000)">
                <g id="Shape-2" transform="translate(295.000000, 144.000000)">
                    <path d="M6.48691514,0.00403853666 C6.44930479,0.00113583036 6.41342688,0 6.37742546,0 C5.74671165,0 5.35724255,0.375971609 5.2234922,0.505334015 L5.18749078,0.537011328 L0.366080589,5.38907081 L0.277994758,5.54644774 C0.049735524,5.95585843 -0.0116287422,6.32475453 0.00272178629,6.63042329 L0,6.62865645 L0,16 L16,16 L16,0.00416398976 L6.48691514,0.00403853666 Z M14.0628287,10.1368886 L12.2747294,10.1368886 C12.0666356,10.1368886 11.8983724,9.96537676 11.8983724,9.75309835 C11.8983724,9.54120117 12.0666293,9.3691789 12.2747294,9.3691789 L14.0629554,9.3691789 C14.270061,9.3691789 14.4391856,9.54119471 14.4391856,9.75309835 C14.4390619,9.96524752 14.2700641,10.1368886 14.0628287,10.1368886 Z M14.7146993,7.06230214 L1.75076565,7.06230214 C1.2575078,6.86315059 1.19068014,6.56239592 1.39531215,6.19566448 L6.05677935,1.50482338 C6.16193949,1.4139563 6.24421353,1.28838366 6.42730867,1.31576817 L14.7146993,1.31576817 L14.7146993,7.0624443 L14.7146993,7.06230214 Z" id="Shape"></path>
                </g>
            </g>
        </g>
    </g>
</svg>