<?xml version="1.0" encoding="UTF-8"?>
<svg width="14px" height="20px" viewBox="0 0 14 20" version="1.1" xmlns="http://www.w3.org/2000/svg" xmlns:xlink="http://www.w3.org/1999/xlink">
    <title>F9E88658-C88F-4A2B-8E28-C1292FEC94E1</title>
    <g id="Page-1" stroke="none" stroke-width="1" fill="none" fill-rule="evenodd">
        <g id="cars" transform="translate(-346.000000, -146.000000)" fill="#1D1D1D" fill-rule="nonzero">
            <g id="Group-7" transform="translate(331.000000, 131.000000)">
                <path d="M22.0002443,15 C20.1435735,15 18.3630424,15.6761256 17.0502018,16.8797126 C15.7375317,18.0830913 15,19.7153773 15,21.4174116 C15,24.5590518 20.7019498,33.2402342 21.8122249,34.9029408 L21.8122249,34.9031442 C21.851955,34.9631673 21.9232012,35 22,35 C22.0767988,35 22.1480461,34.9631709 22.1877751,34.9031442 C23.2982206,33.2344474 29,24.5216465 29,21.4176151 C29,19.7155287 28.2624683,18.0832426 26.9497982,16.8799161 C25.6369576,15.6763812 23.8564265,15.0002035 21.9997557,15.0002035 L22.0002443,15 Z M22,24.1666667 C21.1336067,24.1666667 20.3027668,23.859516 19.6902774,23.3124247 C19.0775619,22.7655402 18.7333333,22.0234913 18.7333333,21.2501009 C18.7333333,20.4765087 19.0775506,19.7346617 19.6902774,19.1875753 C20.3027668,18.6406909 21.1336067,18.3333333 22,18.3333333 C22.8663933,18.3333333 23.6972332,18.6406808 24.3097226,19.1875753 C24.9224381,19.7346617 25.2666667,20.4765087 25.2666667,21.2501009 C25.2666667,22.0234913 24.9224494,22.7655402 24.3097226,23.3124247 C23.6972332,23.859511 22.8663933,24.1666667 22,24.1666667 Z" id="Shape-Copy"></path>
            </g>
        </g>
    </g>
</svg>