<?xml version="1.0" encoding="UTF-8"?>
<svg width="17px" height="10px" viewBox="0 0 17 10" version="1.1" xmlns="http://www.w3.org/2000/svg" xmlns:xlink="http://www.w3.org/1999/xlink">
    <title>7A3E1A55-F75A-4898-BB13-CBE1D966E804</title>
    <g id="Page-1" stroke="none" stroke-width="1" fill="none" fill-rule="evenodd">
        <g id="cars-copy-2" transform="translate(-896.000000, -2474.000000)" fill="#000000" fill-rule="nonzero">
            <g id="Group-19-Copy-4" transform="translate(896.000000, 2441.000000)">
                <g id="noun-dashboard-2082629" transform="translate(0.000000, 33.000000)">
                    <path d="M4.69526337,7 C4.58458474,6.99757191 4.47576463,6.97037704 4.37623312,6.92019488 C4.2123075,6.83197331 4.0886272,6.67916337 4.032745,6.49543507 C3.97670825,6.31170676 3.99311785,6.11227685 4.07794373,5.94117531 C4.901594,4.27872755 6.48390603,3.17505652 8.26811838,3.01899354 C10.0522515,2.86294715 11.7879602,3.67619022 12.864075,5.1724222 C13.0114405,5.38091504 13.0413154,5.65594391 12.9422475,5.89372653 C12.8433342,6.13152158 12.6304928,6.29598443 12.3840595,6.3252825 C12.1376262,6.3544202 11.8950605,6.24402284 11.7475682,6.03536424 C10.9638621,4.92734201 9.68866051,4.32111651 8.37494129,4.43167838 C7.06138058,4.54240187 5.89547062,5.35438102 5.29131512,6.57926401 C5.23822266,6.69969688 5.15463316,6.80265037 5.04937156,6.87679065 C4.94426848,6.95093092 4.82167001,6.99350221 4.69504938,7 L4.69526337,7 Z" id="Path"></path>
                    <path d="M16.2916599,9 C16.1038243,9 15.923574,8.92705782 15.7907623,8.79725096 C15.6579506,8.66744411 15.5833198,8.49127201 15.5833198,8.30768622 C15.5833198,6.47151184 14.8370127,4.71058207 13.5085715,3.4124344 C12.1802922,2.11404935 10.3785988,1.38462756 8.5,1.38462756 C6.62140116,1.38462756 4.81962685,2.11404935 3.49142849,3.4124344 C2.16298727,4.71066119 1.41668016,6.47159096 1.41668016,8.30768622 C1.41668016,8.55509543 1.28165435,8.78364205 1.06251012,8.90726951 C0.843365889,9.03089697 0.573310222,9.03089697 0.35417004,8.90726951 C0.135029857,8.78364205 0,8.55508752 0,8.30768622 C0,6.10434817 0.895544243,3.99120871 2.48963323,2.43330491 C4.08372223,0.87528242 6.24573805,0 8.5,0 C10.7542619,0 12.9163992,0.87528242 14.5103668,2.43330491 C16.1044558,3.9913274 17,6.10442729 17,8.30768622 C17,8.49127201 16.9253693,8.66744411 16.7925575,8.79725096 C16.6597458,8.92705782 16.4794955,9 16.2916599,9 Z" id="Path"></path>
                    <path d="M13.8994464,5.32763587 C13.8029113,5.1737938 13.6470038,5.06329742 13.465734,5.01994785 C13.2846294,4.97674961 13.0929744,5.00433626 12.9329668,5.09664384 L9.78631458,6.91637887 L9.78631458,6.91653043 C9.60442388,6.79451762 9.4014281,6.70478805 9.18662396,6.65173799 C8.73275392,6.54154814 8.25195323,6.61263336 7.85323456,6.84862697 C7.48850575,7.06021802 7.21576848,7.39154421 7.08502584,7.78154286 C6.95447269,8.17169672 6.97478759,8.59397862 7.14235022,8.9707458 C7.31007008,9.34739657 7.61355586,9.65296212 7.99699501,9.8312184 C8.38046239,10.0093117 8.81793619,10.0479624 9.22866883,9.9400463 C9.63940146,9.83197504 9.99558745,9.58461245 10.2316741,9.24358965 C10.4677405,8.90255521 10.5677387,8.49090893 10.512938,8.08438064 L13.6595903,6.25781646 C13.8192753,6.16490513 13.9342385,6.0146988 13.9792788,5.84038481 C14.0241618,5.66607858 13.9954993,5.48161787 13.8994343,5.32761671 L13.8994464,5.32763587 Z" id="Path"></path>
                </g>
            </g>
        </g>
    </g>
</svg>