<?xml version="1.0" encoding="UTF-8"?>
<svg width="22px" height="17px" viewBox="0 0 22 17" version="1.1" xmlns="http://www.w3.org/2000/svg" xmlns:xlink="http://www.w3.org/1999/xlink">
    <title>E89E97EB-A28D-412D-A34D-CD51F4AFA3CE</title>
    <g id="Page-1" stroke="none" stroke-width="1" fill="none" fill-rule="evenodd">
        <g id="cars-copy" transform="translate(-331.000000, -1033.000000)" fill="#000000" fill-rule="nonzero">
            <g id="Group-7" transform="translate(331.000000, 1033.000000)">
                <path d="M4.72442809,4.32995225 L1.46572938,4.32995225 C1.08112249,4.32777839 0.711100417,4.48232219 0.436591672,4.7597926 C0.162092749,5.03746033 0.00498437166,5.41552414 0,5.8117659 L0,10.4384146 C0.0117012422,10.7982954 0.146363741,11.1423609 0.380388585,11.4099455 C0.61422191,11.6773379 0.932450715,11.8510529 1.27870495,11.9002593 L1.27870495,15.8668255 C1.27870495,16.4958947 1.62245472,17 2.08170441,17 L4.12500215,17 C4.58154604,17 4.92530072,16.4844101 4.92530072,15.8668255 L4.92530072,11.9002593 C5.27288575,11.8508525 5.59207706,11.6759517 5.82631797,11.4065862 C6.06053433,11.137418 6.19423826,10.791177 6.2040204,10.4298948 L6.2040204,5.81174566 C6.19960842,5.41273648 6.04116158,5.03211268 5.76339703,4.75385302 C5.4856374,4.47579067 5.11174568,4.32322343 4.72448701,4.32994214 L4.72442809,4.32995225 Z" id="Path"></path>
                <path d="M3.19719697,0.00326748608 C4.21464718,0.0613681033 4.99382969,0.958204051 4.93760205,2.00663586 C4.88120745,3.0548653 4.01050892,3.85761913 2.99305871,3.79969053 C1.97541207,3.74158991 1.19622956,2.84455159 1.25265363,1.79632215 C1.30904823,0.747890339 2.17955033,-0.0548634868 3.19719697,0.00326748608" id="Path"></path>
                <path d="M20.5369175,4.32992963 L17.2755179,4.32992963 C16.8907195,4.32777839 16.5208889,4.48232219 16.2463802,4.7597926 C15.9716848,5.03746033 15.8147729,5.41552414 15.8097885,5.8117659 L15.8097885,10.4384146 C15.8212982,10.7982954 15.9561523,11.1423609 16.1899856,11.4099455 C16.4240104,11.6773379 16.7422441,11.8510529 17.0884984,11.9002593 L17.0884984,15.8668255 C17.0884984,16.4958947 17.4322481,17 17.8914978,17 L19.9209965,17 C20.3802265,17 20.7212951,16.4844101 20.7212951,15.8668255 L20.7212951,11.9002593 C21.0675395,11.8510498 21.3857634,11.6773379 21.6196114,11.4099455 C21.8536363,11.1423559 21.9882978,10.7982802 22,10.4384146 L22,5.8117659 C21.995588,5.41572145 21.8392528,5.03764752 21.565132,4.75999497 C21.2910161,4.48232724 20.9213869,4.32778183 20.5369273,4.32992963 L20.5369175,4.32992963 Z" id="Path"></path>
                <path d="M19.2768291,0.0391882787 C20.2750784,0.250453132 20.9182833,1.255183 20.7134085,2.28383308 C20.5085385,3.31228078 19.5331191,3.97494352 18.5348697,3.76366855 C17.5366204,3.55260101 16.8934155,2.54767383 17.0982903,1.51922612 C17.3031652,0.490778412 18.2785797,-0.171884322 19.2768291,0.0391882787" id="Path"></path>
                <path d="M13.5214758,7.16567117 C13.3776067,7.02614671 13.1520233,7.02990069 13.0123824,7.17377409 C12.8727414,7.31764749 12.8692793,7.54985973 13.0045174,7.69826825 L13.4142573,8.12316569 L8.5852605,8.12316569 L8.99500041,7.69826825 C9.13023648,7.54984961 9.12678425,7.31763939 8.98713541,7.17377409 C8.84748658,7.02990878 8.62190128,7.02614469 8.478042,7.16567117 L7.44124359,8.23383412 L7.44124359,8.2336365 C7.29852851,8.38087128 7.29852851,8.61920826 7.44124359,8.76642786 L8.478042,9.83459081 L8.478042,9.8343932 C8.6219111,9.97391765 8.84749443,9.97016368 8.98713541,9.82629028 C9.12677639,9.68241688 9.13023844,9.45020464 8.99500041,9.30179611 L8.5852605,8.87689867 L13.4142573,8.87689867 L13.0045174,9.30179611 C12.8692813,9.45021476 12.8727335,9.68242497 13.0123824,9.82629028 C13.1520312,9.97015558 13.3776165,9.97391968 13.5214758,9.8343932 L14.5582742,8.76623025 L14.5582742,8.76642786 C14.7009893,8.61919309 14.7009893,8.3808561 14.5582742,8.2336365 L13.5214758,7.16567117 Z" id="Path"></path>
            </g>
        </g>
    </g>
</svg>