<?xml version="1.0" encoding="UTF-8"?>
<svg width="17px" height="17px" viewBox="0 0 17 17" version="1.1" xmlns="http://www.w3.org/2000/svg" xmlns:xlink="http://www.w3.org/1999/xlink">
    <title>A25871F0-7E23-4BB8-847B-6EDD13D0601E</title>
    <g id="Page-1" stroke="none" stroke-width="1" fill="none" fill-rule="evenodd">
        <g id="cars" transform="translate(-1078.000000, -147.000000)" fill="#000000" fill-rule="nonzero">
            <path d="M1086.5,147 C1081.80558,147 1078,150.805687 1078,155.5 C1078,160.194418 1081.80569,164 1086.5,164 C1091.19442,164 1095,160.194313 1095,155.5 C1095,150.805582 1091.19431,147 1086.5,147 Z M1086.5,149.931034 C1086.82385,149.931034 1087.08615,150.19355 1087.08615,150.517189 L1087.08615,155.261696 L1090.0264,158.192731 C1090.25539,158.421718 1090.25539,158.797309 1090.0264,159.026296 C1089.79741,159.255283 1089.42182,159.255283 1089.19284,159.026296 L1086.08782,155.912072 C1085.98171,155.805963 1085.91383,155.661825 1085.91383,155.499895 L1085.91383,150.517189 C1085.91383,150.193336 1086.17635,149.931034 1086.49999,149.931034 L1086.5,149.931034 Z" id="Shape"></path>
        </g>
    </g>
</svg>